<svg id="Logo" xmlns="http://www.w3.org/2000/svg" viewBox="0 0 368.5 56.69"><defs><style>.cls-1,.cls-2{fill:#898c8e;}.cls-2{fill-rule:evenodd;}</style></defs><title>BAE Logo</title><path class="cls-1" d="M0,0V56.69H368.5V0ZM41.55,40.72c-2.14,1.55-5.16,1.59-7.68,1.59H21.07V14.38H34.71c2.12,0,4.28.16,6,1.42a7.41,7.41,0,0,1,3,5.92A6.24,6.24,0,0,1,39,27.86a6.28,6.28,0,0,1,5.43,6.35C44.42,36.62,43.55,39.31,41.55,40.72Zm28.38,1.59-1.59-5.49H60.88l-1.69,5.49h-7l8.66-27.93h9.05l8.74,27.93Zm38.8-21.5H96.15v4.08h10.17v6.23H96.15v4.52h12.58v6.67h-21V14.38h21Zm33.93,21.92c-5.86,0-11.07-2.45-12.58-8.52L138,32.78c.73,2.49,2.61,3.38,5.09,3.38,1.09,0,3.3-.16,3.3-1.71,0-1.71-2.16-2-3.42-2.28-5.25-1-11.48-2.43-11.48-9.07a8.65,8.65,0,0,1,3.59-7,14,14,0,0,1,8-2.13c4.84,0,9.53,2,11.23,6.84L147.27,23c-.82-2.07-2.37-2.8-4.52-2.8-1.15,0-2.78.32-2.78,1.78s2,1.75,3.1,2A29.29,29.29,0,0,1,151,26.19a7.74,7.74,0,0,1,4.16,7.13C155.12,40,148.45,42.73,142.66,42.73Zm36-12.22v11.8h-8.31V30.51L161,14.38h9.41l4.88,9.2,4.68-9.2h7.5ZM205,42.73c-5.87,0-11.07-2.45-12.58-8.52l7.93-1.43c.74,2.49,2.62,3.38,5.09,3.38,1.11,0,3.3-.16,3.3-1.71,0-1.71-2.16-2-3.43-2.28-5.24-1-11.47-2.43-11.47-9.07a8.67,8.67,0,0,1,3.58-7,14.06,14.06,0,0,1,8-2.13c4.85,0,9.53,2,11.23,6.84L209.54,23c-.81-2.07-2.36-2.8-4.52-2.8-1.13,0-2.76.32-2.76,1.78s2,1.75,3.09,2a29.36,29.36,0,0,1,7.9,2.24,7.76,7.76,0,0,1,4.15,7.13C217.4,40,210.73,42.73,205,42.73Zm39.89-21.64H239.1V42.31H231V21.09H225.1V14.38h19.74Zm30.37-.28H262.63v4.08h10.19v6.23H262.63v4.52h12.58v6.67h-21V14.38h21Zm40.91,21.5h-8l-.07-20-5.09,20h-5.45l-5.34-20v20h-6.43V14.38h11.18L301,29.2l3.83-14.82h11.28Zm21.12.42c-5.86,0-11.07-2.45-12.58-8.52l7.94-1.43c.74,2.49,2.61,3.38,5.09,3.38,1.1,0,3.3-.16,3.3-1.71,0-1.71-2.17-2-3.42-2.28-5.26-1-11.48-2.43-11.48-9.07a8.61,8.61,0,0,1,3.58-7,14,14,0,0,1,8-2.13c4.85,0,9.52,2,11.23,6.84L341.84,23c-.81-2.07-2.36-2.8-4.52-2.8-1.14,0-2.77.32-2.77,1.78s2.05,1.75,3.09,2a29.43,29.43,0,0,1,7.91,2.24,7.77,7.77,0,0,1,4.14,7.13C349.69,40,343,42.73,337.24,42.73Z"/><polygon class="cls-2" points="62.31 30.71 64.58 22.61 66.88 30.71 62.31 30.71"/><path class="cls-2" d="M28.93,25.1V20.37h3.34c1.64,0,3.34.28,3.34,2.36a2.53,2.53,0,0,1-.81,1.83,3.47,3.47,0,0,1-2.4.54H28.93"/><path class="cls-2" d="M28.93,36.09V31h3.39a5.75,5.75,0,0,1,2.48.37,2.47,2.47,0,0,1,1.34,2.2,2.43,2.43,0,0,1-1,1.95,3.69,3.69,0,0,1-2.48.54H28.93"/></svg>