
<svg xmlns="http://www.w3.org/2000/svg" viewBox="0 0 144.54 63.97"><defs><style>.cls-1{fill:#FFFFFF;}.cls-2,.cls-4,.cls-6{fill:none;stroke-miterlimit:10;}.cls-2{stroke:#26766d;stroke-width:0.5px;}.cls-3{fill:#26766d;}.cls-4{stroke:#fff;}.cls-4,.cls-6{stroke-width:0.25px;}.cls-5{fill:#fff;}.cls-6{stroke:#FFFFFF;}</style></defs><title>Asset 14</title><g id="Layer_2" data-name="Layer 2"><g id="Layer_1-2" data-name="Layer 1"><path class="cls-1" d="M4,14.47,7.53,24.54l3.55-10.07h3.76V28.36H12v-3.8L12.26,18,8.51,28.36h-2L2.8,18l.29,6.54v3.8H.23V14.47Z"/><path class="cls-1" d="M27.47,24.71a1.46,1.46,0,0,0-.57-1.24,7.75,7.75,0,0,0-2.06-.92,13.94,13.94,0,0,1-2.36-.95,3.82,3.82,0,0,1-2.36-3.44,3.38,3.38,0,0,1,.63-2,4.17,4.17,0,0,1,1.82-1.37,6.87,6.87,0,0,1,2.67-.5,6.24,6.24,0,0,1,2.65.54,4.25,4.25,0,0,1,1.81,1.52,4,4,0,0,1,.64,2.23H27.48a1.87,1.87,0,0,0-.6-1.48,2.48,2.48,0,0,0-1.69-.53,2.68,2.68,0,0,0-1.63.44A1.4,1.4,0,0,0,23,18.17a1.36,1.36,0,0,0,.68,1.14,7.83,7.83,0,0,0,2,.86A8.6,8.6,0,0,1,29.23,22a3.62,3.62,0,0,1,1.11,2.71A3.32,3.32,0,0,1,29,27.52a5.94,5.94,0,0,1-3.67,1A7.08,7.08,0,0,1,22.39,28a4.54,4.54,0,0,1-2-1.61A4.1,4.1,0,0,1,19.69,24h2.87c0,1.53.91,2.3,2.75,2.3a2.64,2.64,0,0,0,1.59-.42A1.34,1.34,0,0,0,27.47,24.71Z"/><path class="cls-1" d="M46.11,23.73a4.9,4.9,0,0,1-1.66,3.53,5.78,5.78,0,0,1-3.93,1.29,5.22,5.22,0,0,1-4.2-1.8,7.37,7.37,0,0,1-1.53-4.94V21a8.3,8.3,0,0,1,.7-3.53,5.28,5.28,0,0,1,2-2.34,5.59,5.59,0,0,1,3.05-.82,5.65,5.65,0,0,1,3.87,1.29,5.26,5.26,0,0,1,1.7,3.61H43.27a2.92,2.92,0,0,0-.75-1.95,2.79,2.79,0,0,0-2-.6,2.42,2.42,0,0,0-2.14,1,5.7,5.7,0,0,0-.73,3.18v1.05a6.09,6.09,0,0,0,.68,3.29,2.36,2.36,0,0,0,2.15,1,2.86,2.86,0,0,0,2-.6,2.81,2.81,0,0,0,.75-1.88Z"/><path class="cls-1" d="M54,28.36H51.1V14.47H54Z"/><path class="cls-1" d="M5.09,39.22H.88v3.67H5.72v.64H.13v-9H5.69v.64H.88v3.4H5.09Z"/><path class="cls-1" d="M13.42,41.32a1.45,1.45,0,0,0-.53-1.18A5.51,5.51,0,0,0,11,39.31a7,7,0,0,1-2-.85,2.08,2.08,0,0,1-.06-3.4A3.47,3.47,0,0,1,11,34.42a3.58,3.58,0,0,1,1.6.34,2.6,2.6,0,0,1,1.1,1,2.51,2.51,0,0,1,.39,1.37h-.77a1.88,1.88,0,0,0-.63-1.48A2.46,2.46,0,0,0,11,35.06a2.62,2.62,0,0,0-1.64.46,1.43,1.43,0,0,0-.61,1.2,1.37,1.37,0,0,0,.54,1.12,5.14,5.14,0,0,0,1.76.77,8.73,8.73,0,0,1,1.84.68,2.7,2.7,0,0,1,.94.85,2.13,2.13,0,0,1,.31,1.17,2,2,0,0,1-.85,1.7,3.59,3.59,0,0,1-2.24.64,4.32,4.32,0,0,1-1.74-.34,2.57,2.57,0,0,1-1.2-1A2.38,2.38,0,0,1,7.74,41H8.5a1.76,1.76,0,0,0,.71,1.5,3,3,0,0,0,1.88.55,2.8,2.8,0,0,0,1.69-.46A1.47,1.47,0,0,0,13.42,41.32Z"/><path class="cls-1" d="M23.32,42.46a2.56,2.56,0,0,1-1.24.88,5.35,5.35,0,0,1-1.89.31,3.53,3.53,0,0,1-1.87-.5A3.39,3.39,0,0,1,17,41.71a4.76,4.76,0,0,1-.45-2.12V38.46a4.35,4.35,0,0,1,.94-3,3.21,3.21,0,0,1,2.54-1.08,3.35,3.35,0,0,1,2.23.7,3,3,0,0,1,1,2h-.76a2.34,2.34,0,0,0-.8-1.5,2.62,2.62,0,0,0-1.67-.51,2.45,2.45,0,0,0-2,.9,3.84,3.84,0,0,0-.73,2.52v1.07a4.33,4.33,0,0,0,.35,1.81,2.75,2.75,0,0,0,1,1.22,2.61,2.61,0,0,0,1.49.43,4.11,4.11,0,0,0,1.69-.31,1.81,1.81,0,0,0,.68-.47V39.91H20.14v-.65h3.18Z"/><path class="cls-1" d="M33.93,39.78H31.31v3.75h-.76v-9h2.92a3.31,3.31,0,0,1,2.25.7,2.65,2.65,0,0,1,.3,3.47,2.6,2.6,0,0,1-1.36.91l2.25,3.83v.08H36.1Zm-2.62-.64h2.33a2.18,2.18,0,0,0,1.54-.54,1.86,1.86,0,0,0,.58-1.41,1.83,1.83,0,0,0-.61-1.48,2.48,2.48,0,0,0-1.69-.53H31.31Z"/><path class="cls-1" d="M44.46,41H40.38l-.93,2.52h-.8l3.41-9h.72l3.4,9h-.79Zm-3.85-.65h3.61l-1.81-4.89Z"/><path class="cls-1" d="M53.81,35.18H50.73v8.35H50V35.18H46.9v-.64h6.91Z"/><path class="cls-1" d="M57.2,43.53h-.76v-9h.76Z"/><path class="cls-1" d="M67.34,43.53h-.76l-5.16-7.69v7.69h-.77v-9h.77l5.17,7.7v-7.7h.75Z"/><path class="cls-1" d="M77.13,42.46a2.56,2.56,0,0,1-1.24.88,5.35,5.35,0,0,1-1.89.31,3.53,3.53,0,0,1-1.87-.5,3.37,3.37,0,0,1-1.27-1.44,4.76,4.76,0,0,1-.46-2.12V38.46a4.35,4.35,0,0,1,.94-3,3.21,3.21,0,0,1,2.54-1.08,3.39,3.39,0,0,1,2.24.7,3,3,0,0,1,1,2h-.76a2.34,2.34,0,0,0-.8-1.5,2.62,2.62,0,0,0-1.67-.51,2.45,2.45,0,0,0-2,.9,3.84,3.84,0,0,0-.73,2.52v1.07a4.33,4.33,0,0,0,.35,1.81,2.75,2.75,0,0,0,1,1.22A2.61,2.61,0,0,0,74,43a4.11,4.11,0,0,0,1.69-.31,1.81,1.81,0,0,0,.68-.47V39.91H74v-.65h3.17Z"/><path class="cls-1" d="M85.38,41.32a1.44,1.44,0,0,0-.52-1.18,5.51,5.51,0,0,0-1.92-.83,7,7,0,0,1-2-.85,2.08,2.08,0,0,1-.07-3.4A3.49,3.49,0,0,1,83,34.42a3.66,3.66,0,0,1,1.61.34,2.57,2.57,0,0,1,1.09,1,2.51,2.51,0,0,1,.39,1.37h-.77a1.91,1.91,0,0,0-.62-1.48,2.49,2.49,0,0,0-1.7-.56,2.66,2.66,0,0,0-1.64.46,1.43,1.43,0,0,0-.61,1.2,1.35,1.35,0,0,0,.55,1.12,5.05,5.05,0,0,0,1.76.77,8.4,8.4,0,0,1,1.83.68,2.61,2.61,0,0,1,.94.85,2.14,2.14,0,0,1,.32,1.17A2,2,0,0,1,85.3,43a3.61,3.61,0,0,1-2.24.64,4.29,4.29,0,0,1-1.74-.34,2.65,2.65,0,0,1-1.21-1A2.45,2.45,0,0,1,79.7,41h.76a1.79,1.79,0,0,0,.71,1.5,3,3,0,0,0,1.89.55,2.76,2.76,0,0,0,1.68-.46A1.44,1.44,0,0,0,85.38,41.32Z"/><line class="cls-2" x1="0.13" y1="3.4" x2="91.85" y2="3.4"/><circle class="cls-3" cx="119.57" cy="24.58" r="24.58"/><circle class="cls-4" cx="119.57" cy="24.58" r="21.32"/><path class="cls-5" d="M116.07,28h-3.85l-.73,2.2h-2.34l4-10.66h2l4,10.66h-2.34Zm-3.26-1.78h2.67l-1.34-4Z"/><path class="cls-5" d="M126.92,28h-3.86l-.73,2.2H120l4-10.66h2l4,10.66h-2.33Zm-3.26-1.78h2.66l-1.34-4Z"/><rect class="cls-3" x="103.19" y="54.82" width="20.66" height="9.12" transform="translate(227.05 118.77) rotate(180)"/><rect class="cls-6" x="0.13" y="54.92" width="144.29" height="8.92" transform="translate(144.54 118.77) rotate(180)"/><path class="cls-1" d="M66.4,61.32V57.05h1.5a1.92,1.92,0,0,1,1.17.3,1,1,0,0,1,.4.87,1,1,0,0,1-.16.56.89.89,0,0,1-.44.34.91.91,0,0,1,.51.34,1,1,0,0,1,.19.61,1.12,1.12,0,0,1-.39.93,1.76,1.76,0,0,1-1.12.32Zm.88-2.48h.65c.44,0,.67-.18.67-.53a.51.51,0,0,0-.17-.42.92.92,0,0,0-.53-.12h-.62Zm0,.62v1.15H68a.79.79,0,0,0,.49-.14.59.59,0,0,0-.43-1Z"/><path class="cls-1" d="M70.83,61.32V57.05h1.49a2,2,0,0,1,1.18.3,1,1,0,0,1,.4.87,1,1,0,0,1-.16.56.88.88,0,0,1-.45.34.9.9,0,0,1,.52.34,1,1,0,0,1,.19.61,1.12,1.12,0,0,1-.39.93,1.76,1.76,0,0,1-1.12.32Zm.88-2.48h.65c.44,0,.67-.18.67-.53a.51.51,0,0,0-.17-.42,1,1,0,0,0-.54-.12h-.61Zm0,.62v1.15h.75a.79.79,0,0,0,.49-.14.59.59,0,0,0-.43-1Z"/><path class="cls-1" d="M75.26,61.32V57.05h1.49a2,2,0,0,1,1.18.3,1,1,0,0,1,.4.87,1,1,0,0,1-.16.56.92.92,0,0,1-.45.34.93.93,0,0,1,.71,1A1.12,1.12,0,0,1,78,61a1.76,1.76,0,0,1-1.12.32Zm.88-2.48h.65c.44,0,.66-.18.66-.53a.51.51,0,0,0-.16-.42,1,1,0,0,0-.54-.12h-.61Zm0,.62v1.15h.75a.79.79,0,0,0,.49-.14.53.53,0,0,0,.17-.41c0-.39-.2-.59-.61-.6Z"/><path class="cls-1" d="M47.94,61.32V57.05h1.49a2,2,0,0,1,1.18.3,1,1,0,0,1,.4.87.9.9,0,0,1-.61.9.93.93,0,0,1,.71,1,1.12,1.12,0,0,1-.39.93,1.76,1.76,0,0,1-1.12.32Zm.88-2.48h.65c.44,0,.66-.18.66-.53a.51.51,0,0,0-.16-.42,1,1,0,0,0-.54-.12h-.61Zm0,.62v1.15h.75a.79.79,0,0,0,.49-.14.53.53,0,0,0,.17-.41c0-.39-.2-.59-.61-.6Z"/><path class="cls-1" d="M52.37,61.32V57.05h1.49a2,2,0,0,1,1.18.3,1,1,0,0,1,.4.87.9.9,0,0,1-.61.9.93.93,0,0,1,.71,1,1.12,1.12,0,0,1-.39.93,1.78,1.78,0,0,1-1.12.32Zm.88-2.48h.65c.44,0,.66-.18.66-.53a.49.49,0,0,0-.17-.42.9.9,0,0,0-.53-.12h-.61Zm0,.62v1.15H54a.79.79,0,0,0,.49-.14.53.53,0,0,0,.17-.41c0-.39-.2-.59-.61-.6Z"/><line class="cls-6" x1="20.76" y1="63.92" x2="20.76" y2="54.92"/><line class="cls-6" x1="41.38" y1="63.92" x2="41.38" y2="54.92"/><line class="cls-6" x1="61.99" y1="63.92" x2="61.99" y2="54.92"/><line class="cls-6" x1="123.84" y1="63.92" x2="123.84" y2="54.92"/><path class="cls-1" d="M8,60a1.49,1.49,0,0,1-.5,1.08,1.82,1.82,0,0,1-1.21.4A1.6,1.6,0,0,1,5,60.91a2.2,2.2,0,0,1-.47-1.51v-.26a2.68,2.68,0,0,1,.21-1.09,1.68,1.68,0,0,1,.62-.72,1.81,1.81,0,0,1,.94-.25,1.71,1.71,0,0,1,1.19.4A1.62,1.62,0,0,1,8,58.59H7.11a.88.88,0,0,0-.23-.6.86.86,0,0,0-.6-.19.76.76,0,0,0-.66.32,1.77,1.77,0,0,0-.22,1v.32a1.88,1.88,0,0,0,.21,1,.74.74,0,0,0,.66.32.86.86,0,0,0,.61-.19A.84.84,0,0,0,7.11,60Z"/><path class="cls-1" d="M12.51,60A1.47,1.47,0,0,1,12,61.07a1.8,1.8,0,0,1-1.21.4,1.62,1.62,0,0,1-1.29-.56A2.26,2.26,0,0,1,9,59.4v-.26a2.53,2.53,0,0,1,.22-1.09,1.62,1.62,0,0,1,.62-.72,1.8,1.8,0,0,1,.93-.25,1.7,1.7,0,0,1,1.19.4,1.59,1.59,0,0,1,.53,1.11h-.88a.88.88,0,0,0-.23-.6.89.89,0,0,0-.61-.19.73.73,0,0,0-.65.32,1.76,1.76,0,0,0-.23,1v.32a1.88,1.88,0,0,0,.21,1,.74.74,0,0,0,.66.32.73.73,0,0,0,.84-.76Z"/><path class="cls-1" d="M17,60a1.54,1.54,0,0,1-.51,1.08,1.82,1.82,0,0,1-1.21.4A1.6,1.6,0,0,1,14,60.91a2.2,2.2,0,0,1-.47-1.51v-.26a2.53,2.53,0,0,1,.22-1.09,1.66,1.66,0,0,1,.61-.72,1.83,1.83,0,0,1,.94-.25,1.71,1.71,0,0,1,1.19.4A1.62,1.62,0,0,1,17,58.59h-.88a.88.88,0,0,0-.23-.6.86.86,0,0,0-.6-.19.76.76,0,0,0-.66.32,1.77,1.77,0,0,0-.22,1v.32a1.88,1.88,0,0,0,.21,1,.74.74,0,0,0,.66.32.86.86,0,0,0,.61-.19.84.84,0,0,0,.23-.57Z"/><path class="cls-1" d="M29.48,61.32V57.05H31a2,2,0,0,1,1.18.3,1,1,0,0,1,.4.87.9.9,0,0,1-.61.9.93.93,0,0,1,.71,1,1.12,1.12,0,0,1-.39.93,1.78,1.78,0,0,1-1.12.32Zm.88-2.48H31c.44,0,.66-.18.66-.53a.49.49,0,0,0-.17-.42.92.92,0,0,0-.53-.12h-.61Zm0,.62v1.15h.75a.74.74,0,0,0,.48-.14.51.51,0,0,0,.18-.41c0-.39-.2-.59-.61-.6Z"/><line class="cls-6" x1="82.61" y1="63.92" x2="82.61" y2="54.92"/><path class="cls-1" d="M93.34,60.44H91.8l-.29.88h-.93l1.58-4.27H93l1.6,4.27h-.94ZM92,59.73h1.07l-.54-1.6Z"/><path class="cls-1" d="M130.53,60.44H129l-.29.88h-.93l1.59-4.27h.81l1.6,4.27h-.94Zm-1.31-.71h1.07l-.54-1.6Z"/><path class="cls-1" d="M135.16,60.44h-1.54l-.29.88h-.94L134,57.05h.82l1.59,4.27h-.93Zm-1.3-.71h1.07l-.54-1.6Z"/><path class="cls-1" d="M139.8,60.44h-1.54l-.29.88H137l1.59-4.27h.81l1.6,4.27h-.93Zm-1.3-.71h1.06l-.53-1.6Z"/><line class="cls-6" x1="103.22" y1="63.92" x2="103.22" y2="54.92"/><path class="cls-5" d="M111.94,60.44h-1.55l-.29.88h-.93l1.59-4.27h.81l1.6,4.27h-.94Zm-1.31-.71h1.07l-.54-1.6Z"/><path class="cls-5" d="M116.57,60.44H115l-.29.88h-.94l1.59-4.27h.82l1.59,4.27h-.93Zm-1.3-.71h1.07l-.54-1.6Z"/></g></g></svg>